<svg width="25" height="25" viewBox="0 0 25 25" fill="none" xmlns="http://www.w3.org/2000/svg">
<path d="M16.8646 2.08337H8.13546C4.34379 2.08337 2.08337 4.34379 2.08337 8.13546V16.8542C2.08337 20.6563 4.34379 22.9167 8.13546 22.9167H16.8542C20.6459 22.9167 22.9063 20.6563 22.9063 16.8646V8.13546C22.9167 4.34379 20.6563 2.08337 16.8646 2.08337ZM17.9688 12.8438C17.9688 13.2709 17.6146 13.625 17.1875 13.625C16.7605 13.625 16.4063 13.2709 16.4063 12.8438V9.69796L8.36462 17.7396C8.20837 17.8959 8.01046 17.9688 7.81254 17.9688C7.61462 17.9688 7.41671 17.8959 7.26046 17.7396C6.95837 17.4375 6.95837 16.9375 7.26046 16.6355L15.3021 8.59379H12.1563C11.7292 8.59379 11.375 8.23962 11.375 7.81254C11.375 7.38546 11.7292 7.03129 12.1563 7.03129H17.1875C17.6146 7.03129 17.9688 7.38546 17.9688 7.81254V12.8438Z" fill="white"/>
</svg>
